<?xml version="1.0" encoding="utf-8"?>
<!-- Svg Vector Icons : http://www.onlinewebfonts.com/icon -->
<!DOCTYPE svg PUBLIC "-//W3C//DTD SVG 1.1//EN" "http://www.w3.org/Graphics/SVG/1.1/DTD/svg11.dtd">
<svg version="1.1" xmlns="http://www.w3.org/2000/svg" xmlns:xlink="http://www.w3.org/1999/xlink" x="0px" y="0px" viewBox="0 0 1000 1000" enable-background="new 0 0 1000 1000" xml:space="preserve">
<metadata> Svg Vector Icons : http://www.onlinewebfonts.com/icon </metadata>
<g><g transform="translate(0.000000,511.000000) scale(0.100000,-0.100000)"><path d="M2650.1,4740.9c-404-62.5-678.1-149.1-1005.1-317.4C882.7,4033.9,332.1,3307.7,146.9,2446.9c-62.5-283.7-62.5-870.5,0-1154.2C392.2,152.9,1257.8-712.8,2397.6-958c149.1-33.7,305.4-43.3,577.1-43.3c401.6,0,634.8,36.1,949.8,146.7c209.2,74.5,608.4,281.3,711.8,367.9l76.9,62.5l-242.9,428c-319.8,562.7-355.9,738.2-209.2,990.7c103.4,177.9,416,353.5,627.6,353.5c233.3,0,466.5-173.1,634.8-473.7c43.3-74.6,84.2-134.7,93.8-134.7c26.5,0,139.5,341.5,187.6,565.1c60.1,271.7,57.7,863.3-2.4,1142.2c-242.9,1123-1091.7,1986.2-2202.6,2238.7C3400.3,4731.3,2813.6,4764.9,2650.1,4740.9z M4403.1,2749.9l113-132.3l-906.5-824.8c-497.8-454.5-911.4-827.2-921-832c-7.2-2.4-226,204.4-480.9,461.7l-466.5,468.9l127.4,146.7l127.4,146.7l346.3-343.9c190-190,348.7-346.3,353.5-348.7c2.4-4.8,360.7,305.4,798.3,687.7c435.2,382.3,793.5,697.3,793.5,697.3C4290,2879.7,4340.5,2822,4403.1,2749.9z"/><path d="M4775.8,1138.8c-317.4-110.6-456.9-322.2-377.5-569.9c21.7-62.5,331.8-627.6,690.1-1257.6c358.3-627.6,651.7-1147,651.7-1151.8c0-7.2-72.1-24-161.1-40.9c-480.9-89-921-317.4-1034-538.6c-144.3-276.5-38.5-586.7,247.7-726.2c125-60.1,153.9-64.9,367.9-57.7c601.2,19.2,880.1,12,1036.4-31.3c250.1-67.3,497.8-204.4,646.8-353.5c72.1-72.1,327-312.6,562.7-536.2l428-404l77,48.1c43.3,24,507.4,290.9,1034,591.5c524.2,298.2,954.6,553.1,954.6,565.1c0,9.6-108.2,312.6-240.4,670.9c-247.7,670.9-303,889.7-358.3,1377.8c-31.3,276.5-125,553.1-281.3,824.8c-300.6,519.4-601.2,805.5-844,805.5c-50.5,0-156.3-28.9-235.6-62.5c-170.7-74.6-202-74.6-425.6-7.2c-295.8,91.4-553.1,21.6-776.7-206.8L6617.7-44.3L6497.5-13C6324.4,32.7,6245,11,6098.3-126c-69.7-67.3-129.8-120.2-132.2-120.2c-9.6,0-293.3,476.1-502.5,841.6c-101,178-214,355.9-250.1,391.9C5076.3,1134,4920.1,1189.3,4775.8,1138.8z"/></g></g>
</svg>