<?xml version="1.0" encoding="iso-8859-1"?>
<!-- Generator: Adobe Illustrator 18.0.0, SVG Export Plug-In . SVG Version: 6.00 Build 0)  -->
<!DOCTYPE svg PUBLIC "-//W3C//DTD SVG 1.1//EN" "http://www.w3.org/Graphics/SVG/1.1/DTD/svg11.dtd">
<svg version="1.1" id="Capa_1" xmlns="http://www.w3.org/2000/svg" xmlns:xlink="http://www.w3.org/1999/xlink" x="0px" y="0px"
	 viewBox="0 0 393.647 393.647" style="enable-background:new 0 0 393.647 393.647;" xml:space="preserve">
<g>
	<path d="M362.573,82.77c-2.15-7.72-7.179-14.14-14.158-18.076L240.621,3.877C236.128,1.341,231.035,0,225.896,0
		c-10.816,0-20.835,5.849-26.145,15.262l-59.037,104.638l-7.225-4.077c-4.494-2.536-9.585-3.876-14.724-3.876
		c-10.816,0-20.836,5.849-26.148,15.266l-0.653,1.159c-2.816,4.99-4.113,10.552-3.842,16.138
		c-9.32,1.192-17.662,6.714-22.347,15.015l-0.654,1.161c-4.835,8.571-4.984,18.534-1.278,26.909
		c-4.881,2.646-9.029,6.623-11.846,11.615l-0.653,1.158c-3.938,6.979-4.923,15.074-2.772,22.795
		c2.151,7.719,7.179,14.139,14.159,18.077l7.247,4.088c-3.493,6.751-4.299,14.45-2.248,21.812c0.979,3.517,2.563,6.759,4.648,9.624
		c-4.351,9.611-11.266,28.29-9.506,46.896c0.49,5.179,4.846,9.06,9.944,9.06c0.314,0,0.634-0.016,0.953-0.046
		c5.498-0.52,9.534-5.398,9.015-10.897c-1.121-11.848,2.747-24.41,6.059-32.637l72.014,40.631c0.035,0.494,0.072,0.98,0.116,1.455
		c0.505,5.5,5.367,9.551,10.872,9.044c5.5-0.505,9.549-5.372,9.044-10.872c-1.915-20.864,9.979-35.571,36.36-44.947
		c3.975-0.803,16.483-4.171,21.578-15.418c3.87-8.543,2.258-18.468-4.792-29.499c-0.21-0.328-0.438-0.643-0.685-0.945
		c-0.317-0.387-7.682-9.591-0.766-18.466c4.189-5.373,16.924,0.047,24.465,5.002c19.397,12.746,30.741,26.304,32.806,39.207
		c1.459,9.118-1.543,18.215-9.179,27.811c-1.63,2.048-3.293,4.159-4.995,6.32c-23.29,29.565-52.274,66.36-99.776,75.357
		c-5.426,1.027-8.992,6.26-7.964,11.686c0.908,4.798,5.104,8.141,9.814,8.141c0.617,0,1.243-0.058,1.872-0.177
		c54.857-10.39,87.748-52.145,111.765-82.632c1.682-2.135,3.324-4.221,4.935-6.244c11.174-14.043,15.641-28.653,13.277-43.424
		c-1.888-11.798-8.064-23.16-18.434-33.965l68.631-121.643C363.74,98.584,364.724,90.489,362.573,82.77z M225.896,20
		c1.726,0,3.373,0.436,4.896,1.296l107.796,60.816c2.326,1.313,4.002,3.452,4.719,6.025c0.718,2.572,0.39,5.271-0.923,7.597
		l-4.066,7.205L213.105,32.293l4.064-7.203C218.94,21.95,222.284,20,225.896,20z M109.384,138.196l0.654-1.16
		c1.771-3.14,5.115-5.09,8.727-5.09c1.727,0,3.374,0.436,4.896,1.294l6.531,3.686l-10.481,18.58l-6.563-3.703
		c-2.31-1.313-3.975-3.445-4.689-6.007C107.741,143.224,108.069,140.525,109.384,138.196z M82.542,170.51l0.653-1.16
		c1.771-3.139,5.115-5.089,8.728-5.089c1.727,0,3.375,0.436,4.897,1.295l6.483,3.657c0.016,0.01,0.031,0.02,0.047,0.028l6.531,3.685
		L99.4,191.506l-13.064-7.371C81.534,181.425,79.831,175.314,82.542,170.51z M68.763,210.193l0.653-1.158
		c1.772-3.14,5.117-5.091,8.729-5.091c1.725,0,3.372,0.436,4.893,1.293l6.534,3.686L79.09,227.505l-6.532-3.685
		c-2.326-1.313-4.003-3.453-4.72-6.026C67.121,215.221,67.449,212.523,68.763,210.193z M163.298,308.181l-71.583-40.385
		c-2.326-1.313-4.002-3.452-4.719-6.025c-0.718-2.572-0.39-5.271,0.923-7.597l4.065-7.205l79.654,44.941
		C167.62,297.299,164.976,302.832,163.298,308.181z M216.809,207.827c-12.995,16.675-5.483,35.008,0.634,42.888
		c3.279,5.258,3.801,8.629,3.175,10.044c-0.873,1.976-5.016,3.694-7.461,4.113c-0.606,0.093-1.203,0.24-1.782,0.442
		c-9.985,3.478-18.063,7.631-24.59,12.178l-84.974-47.941l101.467-179.84l125.213,70.646l-52.726,93.45
		c-2.451-1.818-5.023-3.619-7.732-5.399C246.953,194.558,227.325,194.332,216.809,207.827z"/>
	<path d="M57.326,134.727c2.56,0,5.118-0.977,7.071-2.929c3.905-3.905,3.905-10.237,0-14.143c-19.263-19.263-19.263-50.604,0-69.867
		c9.33-9.331,21.736-14.47,34.933-14.47c7.915,0,15.539,1.861,22.392,5.354h-5.638c-5.522,0-10,4.477-10,10s4.478,10,10,10h29.164
		c5.523,0,10-4.477,10-9.999l0.002-29.166c0-5.524-4.477-10.001-9.999-10.001c-0.001,0-0.001,0-0.001,0c-5.522,0-10,4.476-10,9.999
		v3.838C108.563,7.202,73.272,10.628,50.255,33.646c-27.061,27.061-27.061,71.092,0,98.152
		C52.208,133.75,54.767,134.727,57.326,134.727z"/>
</g>
<g>
</g>
<g>
</g>
<g>
</g>
<g>
</g>
<g>
</g>
<g>
</g>
<g>
</g>
<g>
</g>
<g>
</g>
<g>
</g>
<g>
</g>
<g>
</g>
<g>
</g>
<g>
</g>
<g>
</g>
</svg>
