<?xml version="1.0" encoding="utf-8"?>
<!-- Svg Vector Icons : http://www.onlinewebfonts.com/icon -->
<!DOCTYPE svg PUBLIC "-//W3C//DTD SVG 1.1//EN" "http://www.w3.org/Graphics/SVG/1.1/DTD/svg11.dtd">
<svg version="1.1" xmlns="http://www.w3.org/2000/svg" xmlns:xlink="http://www.w3.org/1999/xlink" x="0px" y="0px" viewBox="0 0 1000 1000" enable-background="new 0 0 1000 1000" xml:space="preserve">
<metadata> Svg Vector Icons : http://www.onlinewebfonts.com/icon </metadata>
<g><path d="M884.2,546.1c40.5-40,219.8-239.5-6-441.6c0,0-187-149.5-390.5,47.8c-230.3-225.9-412.1-1.7-412.1-1.7c-163.4,217.2,24.9,390.1,67.5,424.9l-19.3,23.7c-21.3,26.2-13.4,67.9,17.7,93.3c15.2,12.4,33.2,18.5,50,18.5c0.8,20,10.9,40.9,29.4,55.9c14.9,12.1,32.4,18.1,48.9,18.4c-0.6,21.2,9.7,44,29.6,60.1c14.4,11.7,31.1,17.6,47.1,18.3c0,20.7,10.4,42.7,29.6,58.5c31.1,25.3,73.6,24.7,94.9-1.5l21-25.8l23.7,27.9c28.7,33.9,81.9,36.1,118.7,4.9c21.2-18,32.3-43.1,32.5-67.7c16.2-2.4,32.2-9.4,46-21.1c18.1-15.3,28.8-35.8,31.7-56.7c16.6-2.3,33-9.2,47.1-21.2c20.8-17.6,31.9-42.1,32.5-66.2c18.7-1.2,37.6-8,53.4-21.5c36.8-31.2,43.4-84,14.6-117.9L884.2,546.1z M124.5,189.6c86.7-102.1,188.3-80.6,255-47.7l0,0c0,0,0,0,0.1,0c9.1,4.5,54.2,35.1,65.2,51.3c0.4,0.6,0.9,1.3,1.3,2L292.8,356.5c0,0-73.4,46.6,0,91.3c0,0,1.8,1.4,5.2,3.7c-25.3-8-51.8-2.6-67.2,16.3l-47.9,58.8C-17.8,365.1,124.5,189.6,124.5,189.6z M178.3,653.6c-14.5-10.8-17.5-31.4-6.7-45.9L243,512c10.9-14.5,31.4-17.5,45.9-6.6c14.5,10.8,17.5,31.4,6.6,45.9l-71.4,95.6C213.3,661.4,192.8,664.4,178.3,653.6z M257.7,728c-14.5-10.8-17.5-31.4-6.7-45.9l71.4-95.6c10.8-14.5,31.4-17.5,45.9-6.6c14.5,10.8,17.5,31.4,6.6,45.9l-71.4,95.6C292.7,735.9,272.2,738.9,257.7,728z M381.9,800.1c-10.9,14.3-31.3,17.2-45.7,6.4c-14.5-10.8-17.5-31.4-6.7-45.9l71.4-95.6c10.8-14.5,31.4-17.5,45.9-6.6c14.5,10.8,17.5,31.4,6.6,45.9l-71.2,95.3L381.9,800.1z M458.8,876.6c-10.8,14.5-31.4,17.5-45.9,6.6c-14.5-10.8-17.5-31.4-6.7-45.9l71.3-95.4l0.3-0.3c10.9-14.4,31.3-17.3,45.8-6.5c14.5,10.8,17.5,31.4,6.6,45.9L458.8,876.6z M592.1,886.4c-14.5,13-38.7,9.5-54.1-7.7l-17.2-19.2l45.1-55.3l24.6,27.6C606,849,606.7,873.5,592.1,886.4z M845.6,610.8c-2.8,19.7-21.4,25-21.4,25c-19.1,5-30.2-7-30.2-7L670.7,483.3l-0.2,0.2c-5.8-6-13.9-9.7-22.8-9.7c-6.8,0-13.1,2.2-18.2,5.8c-2.7,1.6-5,3.8-6.7,6.5c-4.2,5.4-6.9,12.1-6.9,19.5c0,9,3.7,17,9.7,22.8c0,0,0,0,0,0.1l122.2,136.8c8.9,10,12.9,22.4,11.8,33.6c0,0.1,0,0.2-0.1,0.4c-2.1,14.2-16.4,19-16.4,19c-12.4,3-20.4-3.2-23.4-6.1L596.5,566.5l-0.1,0.1c-5.9-6.8-14.6-11.1-24.3-11.1c-17.8,0-32.2,14.4-32.2,32.2c0,9.2,3.9,17.5,10.1,23.4l122.2,144.2c0.2,0.4,0.5,0.9,1,1.4c7.3,7.5,7.1,15.8,7.1,15.8c0.2,23-18.2,27.5-18.2,27.5c-16.5,4.6-26.6-6.1-26.7-6.3l-48-56.6c-4.1-15-13.1-29.6-27-40.9c-14.3-11.7-31.1-17.6-47.1-18.3c0-20.7-10.4-42.7-29.6-58.5c-14.9-12.1-32.4-18.1-48.9-18.4c0.5-21.2-9.8-43.9-29.6-60.1c-15.2-12.4-33.1-18.5-50-18.5c-0.8-19.1-10.1-38.9-27-53.8c55.8,26.2,210.4,9.4,281.7-66.7c0,0,29.1-32.1,60.3-7.7l163.6,183.2C842.6,587.4,846.6,599.7,845.6,610.8z M846.4,501.5L722.2,355c-42.7-52.4-63-48.4-96.8-32.9c0,0-24.3,15.9-25.6,17.1c-57.6,37.2-197.6,129.1-267.6,54.9c0,0,148.1-154.8,234.7-235.1c0.2,0,0.4,0,0.4,0s0.2-0.3,0.7-1c8.8-8.2,48.4-36.1,66.6-41.9c61.8-17.6,198.1-35.7,275.6,113.3C910.1,229.4,982.9,362.8,846.4,501.5z"/></g>
</svg>