<?xml version="1.0" encoding="UTF-8"?>
<!DOCTYPE svg PUBLIC "-//W3C//DTD SVG 1.1//EN" "http://www.w3.org/Graphics/SVG/1.1/DTD/svg11.dtd">
<!-- Creator: CorelDRAW 2018 (64-Bit) -->
<svg xmlns="http://www.w3.org/2000/svg" xml:space="preserve" width="100px" height="141px" version="1.1" style="shape-rendering:geometricPrecision; text-rendering:geometricPrecision; image-rendering:optimizeQuality; fill-rule:evenodd; clip-rule:evenodd"
viewBox="0 0 100 141.43"
 xmlns:xlink="http://www.w3.org/1999/xlink">
 <defs>
  <style type="text/css">
   <![CDATA[
    .fil0 {fill:black}
   ]]>
  </style>
 </defs>
 <g id="Слой_x0020_1">
  <metadata id="CorelCorpID_0Corel-Layer"/>
  <path class="fil0" d="M25.56 67.85c-0.65,0 -6.67,-2.14 -7.93,-2.48l-8.02 -2.56c-0.23,0 -3.33,1.48 -3.7,1.68 0.18,0.79 0.31,0.71 0.8,1.22l6.04 6.72c0.41,0.4 0.69,0.68 1.1,1.09 0.73,0.73 1.34,1.45 2.14,2.06 1.33,1.02 3.18,3.35 4.76,3.63 3.84,0.68 10.74,-0.95 14.56,-1.95 1.11,-0.3 2.23,-0.71 3.35,-1.01 2.12,-0.58 7.12,-2.54 9.07,-3.53 0.52,-0.26 0.97,-0.43 1.51,-0.67 0.52,-0.23 0.91,-0.53 1.52,-0.67l-3.04 29.38c-0.05,0.54 -0.4,1.53 -0.01,2.06 0.53,0.71 3.54,-1.12 4.61,-1.66 3.64,-1.83 3.2,-0.82 4.63,-4.78l6.09 -17.25c1.68,-5.08 3.74,-10.39 5.42,-15.42 0.59,-1.77 0.3,-0.99 2.57,-2.13l14.16 -6.83c4,-1.98 9.16,-7.33 4.92,-10.47 -2.9,-2.15 -10.76,-2.29 -14.05,-0.67l-19.2 9.18c-0.62,0.31 -1.05,0.52 -1.68,0.84 -0.69,0.34 -1.14,0.51 -1.85,0.84l-27.77 13.38z"/>
  <path class="fil0" d="M24.22 48.03c0,1.16 0.38,1.1 1.11,1.58 0.6,0.4 1.04,0.64 1.65,1.04 1.17,0.77 2.19,1.4 3.35,2.18l6.65 4.27c1.34,0.9 1,1.08 3.53,-0.17l7.46 -3.62c1.14,-0.47 2.85,-1.53 3.8,-1.75l0 -0.34c-1.58,-0.37 -3.18,-1.09 -4.77,-1.62 -1.79,-0.59 -13.55,-4.93 -14.55,-4.93 -1.77,0 -2.52,0.59 -4.59,1.62 -0.64,0.32 -1.2,0.63 -1.8,0.9l-1.84 0.84z"/>
 </g>
</svg>
