<?xml version="1.0" encoding="UTF-8"?>
<svg width="1103px" height="1472px" viewBox="0 0 1103 1472" version="1.1" xmlns="http://www.w3.org/2000/svg" xmlns:xlink="http://www.w3.org/1999/xlink">
    <!-- Generator: Sketch 52.6 (67491) - http://www.bohemiancoding.com/sketch -->
    <title>point</title>
    <desc>Created with Sketch.</desc>
    <g id="Page-1" stroke="none" stroke-width="1" fill="none" fill-rule="evenodd">
        <g id="point" fill="#000000">
            <path d="M551.33,0.05 C248.94,0.05 0.3,248.69 0.3,557.69 C0.3,658.43 27.18,759.18 74.18,839.81 C168.31,1001.21 551.33,1471.46 551.33,1471.46 C551.33,1471.46 934.2,1007.82 1028.34,839.96 C1075.34,759.33 1102.21,658.58 1102.21,557.84 C1108.97,248.69 860.33,0.05 551.33,0.05 Z M551.33,846.56 C390.08,846.56 262.46,718.94 262.46,557.69 C262.46,396.43 390.08,262.05 551.33,262.05 C712.59,262.05 840.21,389.67 840.21,550.93 C840.21,712.18 719.19,846.56 551.33,846.56 Z" id="Shape"></path>
        </g>
    </g>
</svg>