<?xml version="1.0" encoding="utf-8"?>
<!-- Svg Vector Icons : http://www.onlinewebfonts.com/icon -->
<!DOCTYPE svg PUBLIC "-//W3C//DTD SVG 1.1//EN" "http://www.w3.org/Graphics/SVG/1.1/DTD/svg11.dtd">
<svg version="1.1" xmlns="http://www.w3.org/2000/svg" xmlns:xlink="http://www.w3.org/1999/xlink" x="0px" y="0px" viewBox="0 0 1000 1000" enable-background="new 0 0 1000 1000" xml:space="preserve">
<metadata> Svg Vector Icons : http://www.onlinewebfonts.com/icon </metadata>
<g><path d="M699.8,349.2c9.5,9.5,9.5,24.9,0,34.4L423,660.5L300.2,537.7c-9.5-9.5-9.5-24.9,0-34.5c9.5-9.5,24.9-9.5,34.4,0l88.4,88.4l242.3-242.4C674.9,339.7,690.3,339.7,699.8,349.2z M500.1,940.2c-47-15.4-335.6-122.4-335.6-428.8V181c142.8-3.4,282-34.9,335.5-92.7c53.5,57.8,192.7,89.4,335.5,92.7v330.4C835.5,820.7,549.1,924.7,500.1,940.2z M885.6,156.9c0-13.5-10.9-24.4-24.4-24.4c-204.8,0-335.5-58.2-335.5-98.2c0-13.5-10.9-24.4-24.4-24.4h-2.6c-13.5,0-24.4,10.9-24.4,24.4c0,40-130.7,98.2-335.5,98.2c-13.5,0-24.4,10.9-24.4,24.4c0,2.7,0.5,5.2,1.3,7.6v346.9c0,368.6,373.9,476.7,377.7,477.8c2.1,0.6,4.3,0.9,6.5,0.9c2.2,0,4.4-0.3,6.5-0.9c3.8-1.1,377.7-109.2,377.7-477.8V164.5C885,162.1,885.6,159.6,885.6,156.9z"/></g>
</svg>