<?xml version="1.0" encoding="UTF-8"?><!DOCTYPE svg PUBLIC "-//W3C//DTD SVG 1.1//EN" "http://www.w3.org/Graphics/SVG/1.1/DTD/svg11.dtd"><svg xmlns="http://www.w3.org/2000/svg"><defs>
        <style>
            .fil0{fill:#000}
        </style>
    </defs><symbol id="icon-arrow" viewBox="0 0 16 16">
    <path d="M6.6 13l5-5-5-5-1.4 1.4L8.8 8l-3.6 3.6z"/>
    <path d="M8 1c3.9 0 7 3.1 7 7s-3.1 7-7 7-7-3.1-7-7 3.1-7 7-7zm0-1C3.6 0 0 3.6 0 8s3.6 8 8 8 8-3.6 8-8-3.6-8-8-8z"/>
</symbol><symbol id="icon-calendar" viewBox="0 0 448 512">
    <path d="M400 64h-48V12c0-6.627-5.373-12-12-12h-40c-6.627 0-12 5.373-12 12v52H160V12c0-6.627-5.373-12-12-12h-40c-6.627 0-12 5.373-12 12v52H48C21.49 64 0 85.49 0 112v352c0 26.51 21.49 48 48 48h352c26.51 0 48-21.49 48-48V112c0-26.51-21.49-48-48-48zm-6 400H54a6 6 0 0 1-6-6V160h352v298a6 6 0 0 1-6 6zm-52.849-200.65L198.842 404.519c-4.705 4.667-12.303 4.637-16.971-.068l-75.091-75.699c-4.667-4.705-4.637-12.303.068-16.971l22.719-22.536c4.705-4.667 12.303-4.637 16.97.069l44.104 44.461 111.072-110.181c4.705-4.667 12.303-4.637 16.971.068l22.536 22.718c4.667 4.705 4.636 12.303-.069 16.97z"/>
</symbol><symbol id="icon-cancel" viewBox="0 0 22 22">
    <title>
        Path
    </title>
    <path d="M14.1 11.3c-.2-.2-.2-.5 0-.7l7.5-7.5c.2-.2.3-.5.3-.7 0-.2-.1-.5-.3-.7L20.2.3c-.2-.2-.5-.3-.7-.3-.3 0-.5.1-.7.3l-7.5 7.5c-.2.2-.5.2-.7 0L3.1.3C2.9.1 2.6 0 2.4 0c-.2 0-.5.1-.7.3L.3 1.7c-.2.2-.3.5-.3.7 0 .2.1.5.3.7l7.5 7.5c.2.2.2.5 0 .7L.3 18.8c-.2.2-.3.5-.3.7 0 .2.1.5.3.7l1.4 1.4c.2.2.5.3.7.3.2 0 .5-.1.7-.3l7.5-7.5c.2-.2.5-.2.7 0l7.5 7.5c.2.2.5.3.7.3.2 0 .5-.1.7-.3l1.4-1.4c.2-.2.3-.5.3-.7 0-.2-.1-.5-.3-.7l-7.5-7.5z" fill-rule="evenodd"/>
</symbol><symbol id="icon-car" viewBox="0 0 39.055 39.054">
    <path d="M38.831 14.26a1.005 1.005 0 0 0-.775-.369h-3.801c-.938-2.474-2.16-4.898-3.549-5.813-4.805-3.161-17.55-3.161-22.355 0-1.39.916-2.607 3.343-3.55 5.813H1a.997.997 0 0 0-.775.369.995.995 0 0 0-.204.834l.563 2.728a1 1 0 0 0 .979.797h1.126c-1.087 1.254-1.614 2.833-1.621 4.413-.007 1.952.734 3.716 2.089 4.964.015.013.03.022.044.035v3.817c0 .827.672 1.5 1.5 1.5h3.506c.828 0 1.5-.673 1.5-1.5v-1.534h19.641v1.534c0 .827.672 1.5 1.5 1.5h3.506c.826 0 1.5-.673 1.5-1.5v-3.742c1.438-1.317 2.125-3.129 2.134-4.938.006-1.634-.545-3.271-1.696-4.551h1.201a.996.996 0 0 0 .979-.798l.564-2.727a1.008 1.008 0 0 0-.205-.832zM9.998 10.583c3.83-2.521 15.229-2.521 19.057 0 .744.488 1.701 2.461 2.578 4.877H7.422c.875-2.415 1.832-4.387 2.576-4.877zM5.512 23.408a2.95 2.95 0 1 1 5.901.001 2.95 2.95 0 0 1-5.901-.001zm25.119 2.951a2.951 2.951 0 1 1 0-5.903 2.951 2.951 0 0 1 0 5.903z"/>
</symbol><symbol id="icon-comfort" viewBox="0 0 1000 1000">
    <path d="M265.01 36.91c-40.4 6.25-67.81 14.91-100.51 31.74C88.27 107.61 33.21 180.23 14.69 266.31c-6.25 28.37-6.25 87.05 0 115.42C39.22 495.71 125.78 582.28 239.76 606.8c14.91 3.37 30.54 4.33 57.71 4.33 40.16 0 63.48-3.61 94.98-14.67 20.92-7.45 60.84-28.13 71.18-36.79l7.69-6.25-24.29-42.8c-31.98-56.27-35.59-73.82-20.92-99.07 10.34-17.79 41.6-35.35 62.76-35.35 23.33 0 46.65 17.31 63.48 47.37 4.33 7.46 8.42 13.47 9.38 13.47 2.65 0 13.95-34.15 18.76-56.51 6.01-27.17 5.77-86.33-.24-114.22-24.29-112.3-109.17-198.62-220.26-223.87-19.96-4.57-78.63-7.93-94.98-5.53zm175.3 199.1l11.3 13.23-90.65 82.48c-49.78 45.45-91.14 82.72-92.1 83.2-.72.24-22.6-20.44-48.09-46.17l-46.65-46.89 12.74-14.67 12.74-14.67 34.63 34.39c19 19 34.87 34.63 35.35 34.87.24.48 36.07-30.54 79.83-68.77 43.52-38.23 79.35-69.73 79.35-69.73.24-.25 5.29 5.52 11.55 12.73z"/>
    <path d="M477.58 397.12c-31.74 11.06-45.69 32.22-37.75 56.99 2.17 6.25 33.18 62.76 69.01 125.76 35.83 62.76 65.17 114.7 65.17 115.18 0 .72-7.21 2.4-16.11 4.09-48.09 8.9-92.1 31.74-103.4 53.86-14.43 27.65-3.85 58.67 24.77 72.62 12.5 6.01 15.39 6.49 36.79 5.77 60.12-1.92 88.01-1.2 103.64 3.13 25.01 6.73 49.78 20.44 64.68 35.35 7.21 7.21 32.7 31.26 56.27 53.62l42.8 40.4 7.7-4.81c4.33-2.4 50.74-29.09 103.4-59.15 52.42-29.82 95.46-55.31 95.46-56.51 0-.96-10.82-31.26-24.04-67.09-24.77-67.09-30.3-88.97-35.83-137.78-3.13-27.65-12.5-55.31-28.13-82.48-30.06-51.94-60.12-80.55-84.4-80.55-5.05 0-15.63 2.89-23.56 6.25-17.07 7.46-20.2 7.46-42.56.72-29.58-9.14-55.31-2.16-77.67 20.68l-12.05 12.26-12.02-3.13c-17.31-4.57-25.25-2.4-39.92 11.3-6.97 6.73-12.98 12.02-13.22 12.02-.96 0-29.33-47.61-50.25-84.16-10.1-17.8-21.4-35.59-25.01-39.19-13.72-14.67-29.34-20.2-43.77-15.15z"/>
</symbol><symbol id="icon-confirm" viewBox="0 0 79 58">
    <title>
        confirm
    </title>
    <path d="M78.049 9.015L29.458 57.606a1.094 1.094 0 0 1-1.548 0L.32 30.015a1.094 1.094 0 0 1 0-1.547l6.704-6.704a1.095 1.095 0 0 1 1.548 0l20.113 20.112L69.798.763a1.095 1.095 0 0 1 1.548 0l6.703 6.704a1.094 1.094 0 0 1 0 1.548z" fill-rule="evenodd"/>
</symbol><symbol id="icon-easy" viewBox="0 0 393.647 393.647">
    <path d="M362.573 82.77c-2.15-7.72-7.179-14.14-14.158-18.076L240.621 3.877A30.024 30.024 0 0 0 225.896 0c-10.816 0-20.835 5.849-26.145 15.262L140.714 119.9l-7.225-4.077a30.022 30.022 0 0 0-14.724-3.876c-10.816 0-20.836 5.849-26.148 15.266l-.653 1.159a29.792 29.792 0 0 0-3.842 16.138c-9.32 1.192-17.662 6.714-22.347 15.015l-.654 1.161c-4.835 8.571-4.984 18.534-1.278 26.909a29.987 29.987 0 0 0-11.846 11.615l-.653 1.158c-3.938 6.979-4.923 15.074-2.772 22.795 2.151 7.719 7.179 14.139 14.159 18.077l7.247 4.088c-3.493 6.751-4.299 14.45-2.248 21.812a29.996 29.996 0 0 0 4.648 9.624c-4.351 9.611-11.266 28.29-9.506 46.896.49 5.179 4.846 9.06 9.944 9.06.314 0 .634-.016.953-.046 5.498-.52 9.534-5.398 9.015-10.897-1.121-11.848 2.747-24.41 6.059-32.637l72.014 40.631c.035.494.072.98.116 1.455.505 5.5 5.367 9.551 10.872 9.044 5.5-.505 9.549-5.372 9.044-10.872-1.915-20.864 9.979-35.571 36.36-44.947 3.975-.803 16.483-4.171 21.578-15.418 3.87-8.543 2.258-18.468-4.792-29.499a10.05 10.05 0 0 0-.685-.945c-.317-.387-7.682-9.591-.766-18.466 4.189-5.373 16.924.047 24.465 5.002 19.397 12.746 30.741 26.304 32.806 39.207 1.459 9.118-1.543 18.215-9.179 27.811-1.63 2.048-3.293 4.159-4.995 6.32-23.29 29.565-52.274 66.36-99.776 75.357-5.426 1.027-8.992 6.26-7.964 11.686.908 4.798 5.104 8.141 9.814 8.141.617 0 1.243-.058 1.872-.177 54.857-10.39 87.748-52.145 111.765-82.632 1.682-2.135 3.324-4.221 4.935-6.244 11.174-14.043 15.641-28.653 13.277-43.424-1.888-11.798-8.064-23.16-18.434-33.965l68.631-121.643c3.939-6.978 4.923-15.073 2.772-22.792zM225.896 20c1.726 0 3.373.436 4.896 1.296l107.796 60.816a9.936 9.936 0 0 1 4.719 6.025 9.926 9.926 0 0 1-.923 7.597l-4.066 7.205-125.213-70.646 4.064-7.203a10.03 10.03 0 0 1 8.727-5.09zM109.384 138.196l.654-1.16a10.03 10.03 0 0 1 8.727-5.09c1.727 0 3.374.436 4.896 1.294l6.531 3.686-10.481 18.58-6.563-3.703a9.931 9.931 0 0 1-4.689-6.007 9.927 9.927 0 0 1 .925-7.6zM82.542 170.51l.653-1.16a10.031 10.031 0 0 1 8.728-5.089c1.727 0 3.375.436 4.897 1.295l6.483 3.657c.016.01.031.02.047.028l6.531 3.685-10.481 18.58-13.064-7.371c-4.802-2.71-6.505-8.821-3.794-13.625zm-13.779 39.683l.653-1.158a10.035 10.035 0 0 1 8.729-5.091 9.86 9.86 0 0 1 4.893 1.293l6.534 3.686-10.482 18.582-6.532-3.685a9.94 9.94 0 0 1-4.72-6.026 9.938 9.938 0 0 1 .925-7.601zm94.535 97.988l-71.583-40.385a9.936 9.936 0 0 1-4.719-6.025 9.926 9.926 0 0 1 .923-7.597l4.065-7.205 79.654 44.941c-4.018 5.389-6.662 10.922-8.34 16.271zm53.511-100.354c-12.995 16.675-5.483 35.008.634 42.888 3.279 5.258 3.801 8.629 3.175 10.044-.873 1.976-5.016 3.694-7.461 4.113-.606.093-1.203.24-1.782.442-9.985 3.478-18.063 7.631-24.59 12.178l-84.974-47.941 101.467-179.84 125.213 70.646-52.726 93.45a165.733 165.733 0 0 0-7.732-5.399c-21.08-13.85-40.708-14.076-51.224-.581z"/>
    <path d="M57.326 134.727a9.97 9.97 0 0 0 7.071-2.929c3.905-3.905 3.905-10.237 0-14.143-19.263-19.263-19.263-50.604 0-69.867 9.33-9.331 21.736-14.47 34.933-14.47 7.915 0 15.539 1.861 22.392 5.354h-5.638c-5.522 0-10 4.477-10 10s4.478 10 10 10h29.164c5.523 0 10-4.477 10-9.999l.002-29.166c0-5.524-4.477-10.001-9.999-10.001h-.001c-5.522 0-10 4.476-10 9.999v3.838C108.563 7.202 73.272 10.628 50.255 33.646c-27.061 27.061-27.061 71.092 0 98.152a9.972 9.972 0 0 0 7.071 2.929z"/>
</symbol><symbol id="icon-facebook" viewBox="0 0 512 512">
    <path d="M448 0H64C28.704 0 0 28.704 0 64v384c0 35.296 28.704 64 64 64h192V336h-64v-80h64v-64c0-53.024 42.976-96 96-96h64v80h-32c-17.664 0-32-1.664-32 16v64h80l-32 80h-48v176h96c35.296 0 64-28.704 64-64V64c0-35.296-28.704-64-64-64z"/>
</symbol><symbol id="icon-instagram" viewBox="0 0 169.063 169.063">
    <path d="M122.406 0H46.654C20.929 0 0 20.93 0 46.655v75.752c0 25.726 20.929 46.655 46.654 46.655h75.752c25.727 0 46.656-20.93 46.656-46.655V46.655C169.063 20.93 148.133 0 122.406 0zm31.657 122.407c0 17.455-14.201 31.655-31.656 31.655H46.654C29.2 154.063 15 139.862 15 122.407V46.655C15 29.201 29.2 15 46.654 15h75.752c17.455 0 31.656 14.201 31.656 31.655v75.752z"/>
    <path d="M84.531 40.97c-24.021 0-43.563 19.542-43.563 43.563 0 24.02 19.542 43.561 43.563 43.561s43.563-19.541 43.563-43.561c0-24.021-19.542-43.563-43.563-43.563zm0 72.123c-15.749 0-28.563-12.812-28.563-28.561 0-15.75 12.813-28.563 28.563-28.563s28.563 12.813 28.563 28.563c0 15.749-12.814 28.561-28.563 28.561z"/>
    <path d="M129.921 28.251c-2.89 0-5.729 1.17-7.77 3.22a11.053 11.053 0 0 0-3.23 7.78c0 2.891 1.18 5.73 3.23 7.78 2.04 2.04 4.88 3.22 7.77 3.22 2.9 0 5.73-1.18 7.78-3.22 2.05-2.05 3.22-4.89 3.22-7.78 0-2.9-1.17-5.74-3.22-7.78-2.04-2.05-4.88-3.22-7.78-3.22z"/>
</symbol><symbol id="icon-join" viewBox="0 0 1000 1000">
    <path d="M884.2 546.1c40.5-40 219.8-239.5-6-441.6 0 0-187-149.5-390.5 47.8-230.3-225.9-412.1-1.7-412.1-1.7-163.4 217.2 24.9 390.1 67.5 424.9l-19.3 23.7c-21.3 26.2-13.4 67.9 17.7 93.3 15.2 12.4 33.2 18.5 50 18.5.8 20 10.9 40.9 29.4 55.9 14.9 12.1 32.4 18.1 48.9 18.4-.6 21.2 9.7 44 29.6 60.1 14.4 11.7 31.1 17.6 47.1 18.3 0 20.7 10.4 42.7 29.6 58.5 31.1 25.3 73.6 24.7 94.9-1.5l21-25.8 23.7 27.9c28.7 33.9 81.9 36.1 118.7 4.9 21.2-18 32.3-43.1 32.5-67.7 16.2-2.4 32.2-9.4 46-21.1 18.1-15.3 28.8-35.8 31.7-56.7 16.6-2.3 33-9.2 47.1-21.2 20.8-17.6 31.9-42.1 32.5-66.2 18.7-1.2 37.6-8 53.4-21.5 36.8-31.2 43.4-84 14.6-117.9l-8-9.3zM124.5 189.6c86.7-102.1 188.3-80.6 255-47.7h.1c9.1 4.5 54.2 35.1 65.2 51.3.4.6.9 1.3 1.3 2L292.8 356.5s-73.4 46.6 0 91.3c0 0 1.8 1.4 5.2 3.7-25.3-8-51.8-2.6-67.2 16.3l-47.9 58.8c-200.7-161.5-58.4-337-58.4-337zm53.8 464c-14.5-10.8-17.5-31.4-6.7-45.9L243 512c10.9-14.5 31.4-17.5 45.9-6.6 14.5 10.8 17.5 31.4 6.6 45.9l-71.4 95.6c-10.8 14.5-31.3 17.5-45.8 6.7zm79.4 74.4c-14.5-10.8-17.5-31.4-6.7-45.9l71.4-95.6c10.8-14.5 31.4-17.5 45.9-6.6 14.5 10.8 17.5 31.4 6.6 45.9l-71.4 95.6c-10.8 14.5-31.3 17.5-45.8 6.6zm124.2 72.1c-10.9 14.3-31.3 17.2-45.7 6.4-14.5-10.8-17.5-31.4-6.7-45.9l71.4-95.6c10.8-14.5 31.4-17.5 45.9-6.6 14.5 10.8 17.5 31.4 6.6 45.9l-71.2 95.3-.3.5zm76.9 76.5c-10.8 14.5-31.4 17.5-45.9 6.6-14.5-10.8-17.5-31.4-6.7-45.9l71.3-95.4.3-.3c10.9-14.4 31.3-17.3 45.8-6.5 14.5 10.8 17.5 31.4 6.6 45.9l-71.4 95.6zm133.3 9.8c-14.5 13-38.7 9.5-54.1-7.7l-17.2-19.2 45.1-55.3 24.6 27.6c15.5 17.2 16.2 41.7 1.6 54.6zm253.5-275.6c-2.8 19.7-21.4 25-21.4 25-19.1 5-30.2-7-30.2-7L670.7 483.3l-.2.2c-5.8-6-13.9-9.7-22.8-9.7-6.8 0-13.1 2.2-18.2 5.8-2.7 1.6-5 3.8-6.7 6.5-4.2 5.4-6.9 12.1-6.9 19.5 0 9 3.7 17 9.7 22.8v.1l122.2 136.8c8.9 10 12.9 22.4 11.8 33.6 0 .1 0 .2-.1.4-2.1 14.2-16.4 19-16.4 19-12.4 3-20.4-3.2-23.4-6.1L596.5 566.5l-.1.1c-5.9-6.8-14.6-11.1-24.3-11.1-17.8 0-32.2 14.4-32.2 32.2 0 9.2 3.9 17.5 10.1 23.4l122.2 144.2c.2.4.5.9 1 1.4 7.3 7.5 7.1 15.8 7.1 15.8.2 23-18.2 27.5-18.2 27.5-16.5 4.6-26.6-6.1-26.7-6.3l-48-56.6c-4.1-15-13.1-29.6-27-40.9-14.3-11.7-31.1-17.6-47.1-18.3 0-20.7-10.4-42.7-29.6-58.5-14.9-12.1-32.4-18.1-48.9-18.4.5-21.2-9.8-43.9-29.6-60.1-15.2-12.4-33.1-18.5-50-18.5-.8-19.1-10.1-38.9-27-53.8 55.8 26.2 210.4 9.4 281.7-66.7 0 0 29.1-32.1 60.3-7.7l163.6 183.2c8.8 10 12.8 22.3 11.8 33.4zm.8-109.3L722.2 355c-42.7-52.4-63-48.4-96.8-32.9 0 0-24.3 15.9-25.6 17.1-57.6 37.2-197.6 129.1-267.6 54.9 0 0 148.1-154.8 234.7-235.1h.4s.2-.3.7-1c8.8-8.2 48.4-36.1 66.6-41.9 61.8-17.6 198.1-35.7 275.6 113.3-.1 0 72.7 133.4-63.8 272.1z"/>
</symbol><symbol id="icon-mark" viewBox="0 0 97.713 97.713">
    <path d="M48.855 0C29.021 0 12.883 16.138 12.883 35.974c0 5.174 1.059 10.114 3.146 14.684 8.994 19.681 26.238 40.46 31.31 46.359a2.003 2.003 0 0 0 3.034 0c5.07-5.898 22.314-26.676 31.311-46.359 2.088-4.57 3.146-9.51 3.146-14.684C84.828 16.138 68.69 0 48.855 0zm0 54.659c-10.303 0-18.686-8.383-18.686-18.686 0-10.304 8.383-18.687 18.686-18.687s18.686 8.383 18.686 18.687c.001 10.303-8.382 18.686-18.686 18.686z"/>
</symbol><symbol id="icon-menu" viewBox="0 0 459 459">
    <path d="M0 382.5h459v-51H0v51zM0 255h459v-51H0v51zM0 76.5v51h459v-51H0z"/>
</symbol><symbol id="icon-plane" viewBox="0 0 100 141.43">
    
    <g id="&#x421;&#x43B;&#x43E;&#x439;_x0020_1">
        <path class="fil0" d="M25.56 67.85c-.65 0-6.67-2.14-7.93-2.48l-8.02-2.56c-.23 0-3.33 1.48-3.7 1.68.18.79.31.71.8 1.22l6.04 6.72c.41.4.69.68 1.1 1.09.73.73 1.34 1.45 2.14 2.06 1.33 1.02 3.18 3.35 4.76 3.63 3.84.68 10.74-.95 14.56-1.95 1.11-.3 2.23-.71 3.35-1.01 2.12-.58 7.12-2.54 9.07-3.53.52-.26.97-.43 1.51-.67.52-.23.91-.53 1.52-.67l-3.04 29.38c-.05.54-.4 1.53-.01 2.06.53.71 3.54-1.12 4.61-1.66 3.64-1.83 3.2-.82 4.63-4.78l6.09-17.25c1.68-5.08 3.74-10.39 5.42-15.42.59-1.77.3-.99 2.57-2.13l14.16-6.83c4-1.98 9.16-7.33 4.92-10.47-2.9-2.15-10.76-2.29-14.05-.67l-19.2 9.18c-.62.31-1.05.52-1.68.84-.69.34-1.14.51-1.85.84L25.56 67.85z"/>
        <path class="fil0" d="M24.22 48.03c0 1.16.38 1.1 1.11 1.58.6.4 1.04.64 1.65 1.04 1.17.77 2.19 1.4 3.35 2.18l6.65 4.27c1.34.9 1 1.08 3.53-.17l7.46-3.62c1.14-.47 2.85-1.53 3.8-1.75v-.34c-1.58-.37-3.18-1.09-4.77-1.62-1.79-.59-13.55-4.93-14.55-4.93-1.77 0-2.52.59-4.59 1.62-.64.32-1.2.63-1.8.9l-1.84.84z"/>
    </g>
</symbol><symbol id="icon-point-on" viewBox="0 0 46 70">
    <title>
        point-on
    </title>
    <g fill-rule="evenodd">
        <path d="M22.79.5C10.59.5.57 10.53.57 22.99c0 4.06 1.08 8.12 2.98 11.37 3.79 6.51 19.24 25.47 19.24 25.47s15.44-18.69 19.23-25.46c1.9-3.25 2.98-7.31 2.98-11.38C45.27 10.53 35.25.5 22.79.5zm0 34.14c-6.5 0-11.65-5.15-11.65-11.65s5.15-11.92 11.65-11.92 11.65 5.14 11.65 11.64c0 6.51-4.88 11.93-11.65 11.93z"/>
        <ellipse stroke-width="2.38" cx="22.9" cy="58.32" rx="21.23" ry="9.79"/>
    </g>
</symbol><symbol id="icon-point" viewBox="0 0 1103 1472">
    <title>
        point
    </title>
    <path d="M551.33.05C248.94.05.3 248.69.3 557.69c0 100.74 26.88 201.49 73.88 282.12 94.13 161.4 477.15 631.65 477.15 631.65s382.87-463.64 477.01-631.5c47-80.63 73.87-181.38 73.87-282.12C1108.97 248.69 860.33.05 551.33.05zm0 846.51c-161.25 0-288.87-127.62-288.87-288.87 0-161.26 127.62-295.64 288.87-295.64 161.26 0 288.88 127.62 288.88 288.88 0 161.25-121.02 295.63-288.88 295.63z" fill-rule="evenodd"/>
</symbol><symbol id="icon-profit" viewBox="0 0 533.333 533.333">
    <path d="M266.667 0C119.391 0 0 119.39 0 266.667c0 147.275 119.389 266.666 266.667 266.666 147.275 0 266.667-119.391 266.667-266.666C533.333 119.39 413.942 0 266.667 0zm100 133.333c18.409 0 33.333 22.386 33.333 50s-14.924 50-33.333 50-33.333-22.386-33.333-50 14.923-50 33.333-50zm-183.334 29.2c31.066 0 53.125 11.631 53.125 29.834 0 3.853 1.986 22.393-.088 25.83-7.723-12.8-28.547-21.973-53.037-21.973-24.489 0-45.313 9.173-53.036 21.973-2.074-3.438-.089-21.977-.089-25.83 0-18.203 22.059-29.834 53.125-29.834zm77.263 270.8c-62.105 0-116.593-33.479-147.339-83.829 36.672 28.678 101.32 34.277 169.421 20.823 73.046-14.433 129.744-47.679 150.235-91.979-11.278 87.48-84.123 154.985-172.317 154.985z"/>
</symbol><symbol id="icon-search" viewBox="0 0 250.313 250.313">
    <path d="M244.186 214.604l-54.379-54.378c-.289-.289-.628-.491-.93-.76 10.7-16.231 16.945-35.66 16.945-56.554C205.822 46.075 159.747 0 102.911 0S0 46.075 0 102.911c0 56.835 46.074 102.911 102.91 102.911 20.895 0 40.323-6.245 56.554-16.945.269.301.47.64.759.929l54.38 54.38c8.169 8.168 21.413 8.168 29.583 0 8.168-8.169 8.168-21.413 0-29.582zm-141.275-44.458c-37.134 0-67.236-30.102-67.236-67.235 0-37.134 30.103-67.236 67.236-67.236 37.132 0 67.235 30.103 67.235 67.236s-30.103 67.235-67.235 67.235z" fill-rule="evenodd" clip-rule="evenodd"/>
</symbol><symbol id="icon-shield" viewBox="0 0 1000 1000">
    <path d="M699.8 349.2c9.5 9.5 9.5 24.9 0 34.4L423 660.5 300.2 537.7c-9.5-9.5-9.5-24.9 0-34.5 9.5-9.5 24.9-9.5 34.4 0l88.4 88.4 242.3-242.4c9.6-9.5 25-9.5 34.5 0zm-199.7 591c-47-15.4-335.6-122.4-335.6-428.8V181c142.8-3.4 282-34.9 335.5-92.7 53.5 57.8 192.7 89.4 335.5 92.7v330.4c0 309.3-286.4 413.3-335.4 428.8zm385.5-783.3c0-13.5-10.9-24.4-24.4-24.4-204.8 0-335.5-58.2-335.5-98.2 0-13.5-10.9-24.4-24.4-24.4h-2.6c-13.5 0-24.4 10.9-24.4 24.4 0 40-130.7 98.2-335.5 98.2-13.5 0-24.4 10.9-24.4 24.4 0 2.7.5 5.2 1.3 7.6v346.9c0 368.6 373.9 476.7 377.7 477.8 2.1.6 4.3.9 6.5.9s4.4-.3 6.5-.9c3.8-1.1 377.7-109.2 377.7-477.8V164.5c.9-2.4 1.5-4.9 1.5-7.6z"/>
</symbol><symbol id="icon-star" viewBox="0 0 49.94 49.94">
    <path d="M48.856 22.73a3.56 3.56 0 0 0 .906-3.671 3.56 3.56 0 0 0-2.892-2.438l-12.092-1.757a1.58 1.58 0 0 1-1.19-.865L28.182 3.043a3.56 3.56 0 0 0-3.212-1.996 3.56 3.56 0 0 0-3.211 1.996L16.352 14c-.23.467-.676.79-1.191.865L3.069 16.622A3.56 3.56 0 0 0 .177 19.06a3.56 3.56 0 0 0 .906 3.671l8.749 8.528c.373.364.544.888.456 1.4L8.224 44.701a3.506 3.506 0 0 0 .781 2.904c1.066 1.267 2.927 1.653 4.415.871l10.814-5.686a1.619 1.619 0 0 1 1.472 0l10.815 5.686a3.544 3.544 0 0 0 1.666.417c1.057 0 2.059-.47 2.748-1.288a3.505 3.505 0 0 0 .781-2.904l-2.065-12.042a1.582 1.582 0 0 1 .456-1.4l8.749-8.529z"/>
</symbol><symbol id="icon-user" viewBox="0 0 1000 1000">
    <path d="M500 990C229.4 990 10 770.6 10 500S229.4 10 500 10s490 219.4 490 490-219.4 490-490 490zm269-141.1c-45.2-104.1-148.2-177.4-269-177.4s-223.9 73.1-269.1 177.3C305.3 906.4 398.6 941 500 941c101.4 0 194.5-34.5 269-92.1zM647 451c0-81.2-65.8-147-147-147s-147 65.8-147 147 65.8 147 147 147 147-65.8 147-147zM500 59C256.5 59 59 256.5 59 500c0 123.8 51.1 235.5 133.3 315.6 44.8-91.8 129-160.8 231-184.2C353.2 601.6 304 532 304 451c0-108.2 87.8-196 196-196s196 87.8 196 196c0 81-49.2 150.6-119.3 180.4 102 23.3 186.1 92.4 231 184.2C889.8 735.6 941 623.8 941 500c0-243.5-197.5-441-441-441z"/>
</symbol><symbol id="icon-users" viewBox="0 0 80.13 80.13">
    <path d="M48.355 17.922c3.705 2.323 6.303 6.254 6.776 10.817a11.69 11.69 0 0 0 4.966 1.112c6.491 0 11.752-5.261 11.752-11.751 0-6.491-5.261-11.752-11.752-11.752-6.429.002-11.644 5.169-11.742 11.574zm-7.699 24.062c6.491 0 11.752-5.262 11.752-11.752s-5.262-11.751-11.752-11.751c-6.49 0-11.754 5.262-11.754 11.752s5.264 11.751 11.754 11.751zm4.985.801h-9.972c-8.297 0-15.047 6.751-15.047 15.048v12.195l.031.191.84.263c7.918 2.474 14.797 3.299 20.459 3.299 11.059 0 17.469-3.153 17.864-3.354l.785-.397h.084V57.833c.003-8.297-6.747-15.048-15.044-15.048zm19.443-12.132h-9.895a14.483 14.483 0 0 1-4.47 10.088c7.375 2.193 12.771 9.032 12.771 17.11v3.758c9.77-.358 15.4-3.127 15.771-3.313l.785-.398h.084V45.699c0-8.296-6.75-15.046-15.046-15.046zm-45.049-.8c2.299 0 4.438-.671 6.25-1.814a14.544 14.544 0 0 1 5.467-9.276c.012-.22.033-.438.033-.66 0-6.491-5.262-11.752-11.75-11.752-6.492 0-11.752 5.261-11.752 11.752 0 6.488 5.26 11.75 11.752 11.75zm10.554 10.888a14.492 14.492 0 0 1-4.467-10.032c-.367-.027-.73-.056-1.104-.056h-9.971C6.75 30.653 0 37.403 0 45.699v12.197l.031.188.84.265c6.352 1.983 12.021 2.897 16.945 3.185v-3.683c.002-8.078 5.396-14.915 12.773-17.11z"/>
</symbol><symbol id="icon-vk" viewBox="0 0 304.36 304.36">
    <path d="M261.945 175.576c10.096 9.857 20.752 19.131 29.807 29.982 4 4.822 7.787 9.798 10.684 15.394 4.105 7.955.387 16.709-6.746 17.184l-44.34-.02c-11.436.949-20.559-3.655-28.23-11.474-6.139-6.253-11.824-12.908-17.727-19.372-2.42-2.642-4.953-5.128-7.979-7.093-6.053-3.929-11.307-2.726-14.766 3.587-3.523 6.421-4.322 13.531-4.668 20.687-.475 10.441-3.631 13.186-14.119 13.664-22.414 1.057-43.686-2.334-63.447-13.641-17.422-9.968-30.932-24.04-42.691-39.971-22.895-31.021-40.428-65.108-56.186-100.15C-2.01 76.458.584 72.22 9.295 72.07c14.465-.281 28.928-.261 43.41-.02 5.879.086 9.771 3.458 12.041 9.012 7.826 19.243 17.402 37.551 29.422 54.521 3.201 4.518 6.465 9.036 11.113 12.216 5.142 3.521 9.057 2.354 11.476-3.374 1.535-3.632 2.207-7.544 2.553-11.434 1.146-13.383 1.297-26.743-.713-40.079-1.234-8.323-5.922-13.711-14.227-15.286-4.238-.803-3.607-2.38-1.555-4.799 3.564-4.172 6.916-6.769 13.598-6.769h50.111c7.889 1.557 9.641 5.101 10.721 13.039l.043 55.663c-.086 3.073 1.535 12.192 7.07 14.226 4.43 1.448 7.35-2.096 10.008-4.905 11.998-12.734 20.561-27.783 28.211-43.366 3.395-6.852 6.314-13.968 9.143-21.078 2.096-5.276 5.385-7.872 11.328-7.757l48.229.043c1.43 0 2.877.021 4.262.258 8.127 1.385 10.354 4.881 7.844 12.817-3.955 12.451-11.65 22.827-19.174 33.251-8.043 11.129-16.645 21.877-24.621 33.072-7.328 10.223-6.746 15.376 2.357 24.255zm0 0" fill-rule="evenodd" clip-rule="evenodd"/>
</symbol></svg>